<!-- icon-propiedades.svg -->
<svg
  width="64"
  height="64"
  viewBox="0 0 64 64"
  fill="none"
  xmlns="http://www.w3.org/2000/svg"
>
  <defs>
    <linearGradient id="goldGradient" x1="8" y1="8" x2="56" y2="56" gradientUnits="userSpaceOnUse">
      <stop stop-color="#D8C08A"/>
      <stop offset="1" stop-color="#B9975B"/>
    </linearGradient>
  </defs>

  <!-- House -->
  <path
    d="M12 30L32 14L52 30"
    stroke="url(#goldGradient)"
    stroke-width="2.5"
    stroke-linecap="round"
    stroke-linejoin="round"
  />

  <path
    d="M18 28V48H46V28"
    stroke="url(#goldGradient)"
    stroke-width="2.5"
    stroke-linecap="round"
    stroke-linejoin="round"
  />

  <!-- Door -->
  <path
    d="M28 48V36H36V48"
    stroke="url(#goldGradient)"
    stroke-width="2.5"
    stroke-linecap="round"
    stroke-linejoin="round"
  />

  <!-- Window -->
  <rect
    x="22"
    y="32"
    width="6"
    height="6"
    rx="1"
    stroke="url(#goldGradient)"
    stroke-width="2"
  />

  <!-- Palm Tree (Puerto Rico subtle touch) -->
  <path
    d="M50 46V30"
    stroke="url(#goldGradient)"
    stroke-width="2.5"
    stroke-linecap="round"
  />

  <path
    d="M50 22C47 20 45 18 43 15"
    stroke="url(#goldGradient)"
    stroke-width="2"
    stroke-linecap="round"
  />

  <path
    d="M50 22C53 20 56 18 58 15"
    stroke="url(#goldGradient)"
    stroke-width="2"
    stroke-linecap="round"
  />

  <path
    d="M50 22C46 22 42 23 39 25"
    stroke="url(#goldGradient)"
    stroke-width="2"
    stroke-linecap="round"
  />

  <path
    d="M50 22C54 22 58 23 61 25"
    stroke="url(#goldGradient)"
    stroke-width="2"
    stroke-linecap="round"
  />
</svg>